HIERARCHY
ROOT root
{
	OFFSET	0	13.1	24.9
	CHANNELS 6  Xposition Yposition Zposition Xrotation Yrotation Zrotation
	JOINT spine_1
	{
		OFFSET	0	9.99999	0
		CHANNELS 3  Xrotation Yrotation Zrotation
		JOINT spine_2
		{
			OFFSET	0	112	-10
			CHANNELS 3  Xrotation Yrotation Zrotation
			JOINT spine_3
			{
				OFFSET	0	206.5	19.3
				CHANNELS 3  Xrotation Yrotation Zrotation
				JOINT spine_4
				{
					OFFSET	0	110.4	14.6
					CHANNELS 3  Xrotation Yrotation Zrotation
					JOINT neck_1
					{
						OFFSET	0	71.8	-50.3
						CHANNELS 3  Xrotation Yrotation Zrotation
						JOINT neck_2
						{
							OFFSET	0	86.2	-25.8
							CHANNELS 3  Xrotation Yrotation Zrotation
							JOINT head_ee
							{
								OFFSET	0	179.8	-8.7
								CHANNELS 3  Xrotation Yrotation Zrotation
								End Site
								{
									OFFSET	1	0	0
								}
							}
						}
					}
					JOINT left_clavicle
					{
						OFFSET	-43.2	22.4	-70.8
						CHANNELS 3  Xrotation Yrotation Zrotation
						JOINT left_shoulder
						{
							OFFSET	-93.9	-5.79999	48.7
							CHANNELS 3  Xrotation Yrotation Zrotation
							JOINT left_elbow
							{
								OFFSET	-291.4	-30.8	15.2
								CHANNELS 3  Xrotation Yrotation Zrotation
								JOINT left_lowarm_twist
								{
									OFFSET	-110.7	-3.89999	13.6
									CHANNELS 3  Xrotation Yrotation Zrotation
									JOINT left_hand
									{
										OFFSET	-110.7	-3.89999	13.6
										CHANNELS 3  Xrotation Yrotation Zrotation
										JOINT left_ee
										{
											OFFSET	-80.8	-5.10001	12.1
											CHANNELS 3  Xrotation Yrotation Zrotation
											End Site
											{
												OFFSET	1	0	0
											}
										}
									}
								}
							}
						}
					}
					JOINT right_clavicle
					{
						OFFSET	43.2	22.4	-70.8
						CHANNELS 3  Xrotation Yrotation Zrotation
						JOINT right_shoulder
						{
							OFFSET	93.9	-5.79999	48.7
							CHANNELS 3  Xrotation Yrotation Zrotation
							JOINT right_elbow
							{
								OFFSET	291.4	-30.8	15.2
								CHANNELS 3  Xrotation Yrotation Zrotation
								JOINT right_lowarm_twist
								{
									OFFSET	110.7	-3.89999	13.6
									CHANNELS 3  Xrotation Yrotation Zrotation
									JOINT right_hand
									{
										OFFSET	110.7	-3.89999	13.6
										CHANNELS 3  Xrotation Yrotation Zrotation
										JOINT right_ee
										{
											OFFSET	80.8	-5.10001	12.1
											CHANNELS 3  Xrotation Yrotation Zrotation
											End Site
											{
												OFFSET	1	0	0
											}
										}
									}
								}
							}
						}
					}
				}
			}
		}
	}
	JOINT left_hip
	{
		OFFSET	-82.8	-127.5	0.300001
		CHANNELS 3  Xrotation Yrotation Zrotation
		JOINT left_knee
		{
			OFFSET	-28.2	-396.7	2.2
			CHANNELS 3  Xrotation Yrotation Zrotation
			JOINT left_ankle
			{
				OFFSET	-11.7	-411.3	35.4
				CHANNELS 3  Xrotation Yrotation Zrotation
				JOINT left_toes
				{
					OFFSET	0	-60	-88.6
					CHANNELS 3  Xrotation Yrotation Zrotation
					JOINT left_foot_ee
					{
						OFFSET	-22.5	-16.5	-42.2
						CHANNELS 3  Xrotation Yrotation Zrotation
						End Site
						{
							OFFSET	1	0	0
						}
					}
				}
			}
		}
	}
	JOINT right_hip
	{
		OFFSET	82.8	-127.5	0.300001
		CHANNELS 3  Xrotation Yrotation Zrotation
		JOINT right_knee
		{
			OFFSET	28.2	-396.7	2.2
			CHANNELS 3  Xrotation Yrotation Zrotation
			JOINT right_ankle
			{
				OFFSET	11.7	-411.3	35.4
				CHANNELS 3  Xrotation Yrotation Zrotation
				JOINT right_toes
				{
					OFFSET	0	-60	-88.6
					CHANNELS 3  Xrotation Yrotation Zrotation
					JOINT right_foot_ee
					{
						OFFSET	22.5	-16.5	-42.2
						CHANNELS 3  Xrotation Yrotation Zrotation
						End Site
						{
							OFFSET	1	0	0
						}
					}
				}
			}
		}
	}
}
MOTION
Frames: 11
Frame Time: 0.02
1877.8 730.441 -1593.03 3.97459 67.5837 -12.8189 -0.909902 1.2299 5.54889 -0.893207 0.874892 5.61562 -0.793215 -0.403292 5.66887 -0.837688 0.495588 5.66157 -7.4225 13.8845 -6.58628 -7.28562 30.5207 -3.65083 -0.0 0.0 -0.0 -2.46748 23.6573 -0.628193 -17.9904 -12.3315 51.6632 2.51452 -51.2338 1.20582 -59.5782 -5.23034 5.08785 0.532335 -8.40731 0.0247886 -0.0 0.0 -0.0 13.0184 22.8389 -26.0539 -12.4595 30.0202 -63.6472 0.806436 21.7758 -0.155121 35.3182 0.128402 4.43922 0.367581 -17.1234 -9.23459 0.0 0.0 0.0 -6.94999 4.42522 4.93593 -12.5502 0.310007 1.89723 10.9853 19.608 -1.58952 15.4405 -0.0 -0.0 -0.0 0.0 -0.0 -2.41032 9.42735 5.88312 -15.0795 -0.321786 -2.28508 29.8131 -0.692292 3.88561 -6.2198 0.0 0.0 0.0 0.0 0.0 
1866.08 741.588 -1595.4 5.66744 68.2561 -14.4843 -0.855939 1.24384 5.4519 -0.839856 0.894941 5.51971 -0.740038 -0.356944 5.5802 -0.783076 0.527424 5.56672 -8.96297 13.0636 -5.27475 -9.03336 28.1133 -2.08196 -0.0 0.0 -0.0 -2.78779 23.8284 -1.03339 -19.859 -12.4233 52.6252 2.27991 -48.4708 1.02644 -60.2418 -5.31283 5.10864 0.512949 -7.82504 0.14179 -0.0 0.0 -0.0 13.2765 23.596 -26.5812 -11.7148 29.861 -62.8064 0.824107 22.207 -0.161739 36.2035 0.166662 4.54574 0.570947 -13.7413 -9.24754 0.0 0.0 0.0 -6.37319 4.83234 5.22715 -15.8239 0.321991 2.3993 13.0701 18.9938 -1.87356 16.3685 -0.0 -0.0 -0.0 0.0 -0.0 -3.06446 7.32435 5.59229 -9.4051 -0.271504 -1.41624 28.4411 0.262681 3.74356 -7.02968 0.0 0.0 0.0 0.0 0.0 
1858.49 738.875 -1592.15 6.6696 68.1273 -15.9108 -0.929549 1.22275 5.3983 -0.913772 0.877297 5.46489 -0.816438 -0.369369 5.52235 -0.858612 0.50606 5.51154 -10.0257 12.5188 -4.22546 -10.2012 26.4065 -0.910755 -0.0 0.0 -0.0 -2.42253 23.9289 -0.517605 -20.7815 -12.6973 53.7694 2.13037 -46.536 0.916157 -60.7059 -5.37067 5.12262 0.441382 -5.35833 0.704869 -0.0 0.0 -0.0 13.6659 24.3777 -27.4088 -11.0295 29.8434 -62.7802 0.838261 22.5505 -0.167127 36.6097 0.184768 4.59441 0.684391 -8.68574 -8.05004 0.0 0.0 0.0 -4.48856 3.59759 4.4365 -17.7851 0.315427 2.70012 14.4942 17.733 -2.05837 16.4601 -0.0 -0.0 -0.0 0.0 -0.0 -4.5376 6.84189 6.07539 -5.13883 -0.17721 -0.768485 28.1373 1.14426 3.71715 -6.85011 0.0 0.0 0.0 0.0 0.0 
1856.87 740.715 -1594.51 6.27364 68.4623 -14.8127 -0.878521 1.04583 5.05115 -0.864624 0.722723 5.10726 -0.788688 -0.437812 5.13944 -0.825329 0.378257 5.14416 -10.8437 12.4317 -3.71189 -11.0914 25.9232 -0.229613 -0.0 0.0 -0.0 -2.41191 23.9904 -0.492081 -22.1596 -12.6363 54.2827 2.0528 -45.4746 0.860352 -60.9372 -5.39953 5.1294 0.394281 -3.6716 1.09896 -0.0 0.0 -0.0 13.7146 25.0484 -27.4481 -9.42268 30.1067 -61.7867 0.856897 23.0001 -0.174342 36.891 0.19751 4.62805 0.815779 -4.18781 -7.14792 0.0 0.0 0.0 -2.5575 2.745 4.03636 -19.0237 0.305978 2.88992 15.422 15.7106 -2.17002 16.202 -0.0 -0.0 -0.0 0.0 -0.0 -6.43185 6.38412 6.72582 -2.54786 -0.0964881 -0.379076 27.961 1.76467 3.70313 -6.63497 0.0 0.0 0.0 0.0 0.0 
1847.15 741.545 -1587.56 5.76105 67.2946 -14.6305 -0.858355 1.20379 4.83177 -0.845816 0.894275 4.89835 -0.758384 -0.220481 4.97425 -0.792448 0.566894 4.94682 -11.1539 12.6091 -2.65539 -11.4408 25.5797 0.919891 -0.0 0.0 -0.0 -2.46291 24.8946 -0.396449 -25.3543 -12.3377 56.0703 1.96495 -44.2222 0.798391 -61.7455 -5.50059 5.1522 0.327179 -2.44671 1.16267 -0.0 0.0 -0.0 13.7707 25.5328 -27.523 -7.60156 30.412 -60.6853 0.871314 23.3459 -0.180015 37.0394 0.204295 4.64576 0.884241 0.860229 -5.5637 0.0 0.0 0.0 3.85092 2.6058 3.54679 -19.6145 0.300026 2.98037 13.4809 14.919 -1.9073 14.5433 -0.0 -0.0 -0.0 0.0 -0.0 -11.5839 4.64951 8.44795 -1.1453 -0.0454612 -0.169879 30.7195 4.22811 4.02886 -5.78424 0.0 0.0 0.0 0.0 0.0 
1839.83 735.875 -1582.08 5.74487 67.5218 -15.0081 -0.803829 1.18363 4.71722 -0.791885 0.881415 4.78277 -0.708013 -0.202959 4.85889 -0.740498 0.566045 4.83014 -10.7289 12.8623 -2.11212 -10.9938 25.6834 1.41443 -0.0 0.0 -0.0 -2.1129 24.0161 -0.0822474 -26.7382 -12.5396 57.2335 1.89481 -43.1824 0.749928 -62.1706 -5.55387 5.16361 0.269208 -0.84994 1.44305 -0.0 0.0 -0.0 13.6323 25.8169 -27.1662 -6.55113 30.5656 -59.9757 0.898179 23.9855 -0.190799 37.5055 0.225914 4.7013 1.03843 5.98914 -4.46982 0.0 0.0 0.0 4.58681 1.59307 4.26181 -21.0012 0.282394 3.19242 15.0927 13.9898 -2.11822 14.681 -0.0 -0.0 -0.0 0.0 -0.0 -12.725 2.70232 8.84678 0.368419 0.0153459 0.0544538 29.8895 4.76875 3.94726 -6.18915 0.0 0.0 0.0 0.0 0.0 
1827.94 738.317 -1583.61 5.85006 68.0303 -14.8953 -0.864606 1.17504 4.42745 -0.854145 0.891218 4.49307 -0.774839 -0.134268 4.57846 -0.803596 0.589739 4.54238 -9.94023 12.8987 -1.75399 -10.1439 25.4674 1.58109 -0.0 0.0 -0.0 -2.04803 23.2364 -0.12673 -28.803 -12.5397 57.9277 1.72867 -40.571 0.639 -62.6712 -5.6167 5.17654 0.236159 0.507244 1.78882 -0.0 0.0 -0.0 13.6937 26.282 -27.2526 -5.09577 31.0242 -59.6511 0.936958 24.8976 -0.206845 37.8476 0.242068 4.74195 1.20999 10.3329 -3.77799 0.0 0.0 0.0 6.37364 0.996763 4.27775 -22.0899 0.264959 3.35855 14.7658 13.4786 -2.07295 14.2638 -0.0 -0.0 -0.0 0.0 -0.0 -13.7408 1.44535 8.37658 1.40928 0.0605929 0.207763 27.7986 7.34096 3.75465 -6.4829 0.0 0.0 0.0 0.0 0.0 
1818.49 741.125 -1586.17 5.89711 67.3984 -14.544 -0.915195 1.26984 4.42257 -0.904856 0.986138 4.49421 -0.817737 -0.0451432 4.60069 -0.846617 0.681252 4.5503 -9.48478 13.0594 -1.32328 -9.65862 25.4478 1.93469 -0.0 0.0 -0.0 -1.83765 22.9167 0.110742 -29.9395 -12.6233 58.7157 1.62174 -38.774 0.570724 -63.0301 -5.66181 5.18547 0.194655 1.71108 2.01337 -0.0 0.0 -0.0 13.6975 26.6426 -27.2164 -4.06328 31.3984 -59.4502 0.964991 25.5487 -0.218791 38.0869 0.253513 4.77033 1.34865 13.5901 -3.29602 0.0 0.0 0.0 9.83503 0.434229 2.95824 -22.9605 0.248745 3.49117 13.6867 13.2825 -1.92869 13.7589 -0.0 -0.0 -0.0 0.0 -0.0 -15.5377 0.306788 8.43618 2.477 0.1099 0.364166 25.9804 9.10401 3.57558 -6.77654 0.0 0.0 0.0 0.0 0.0 
1811.17 735.425 -1585.96 4.79809 67.7962 -13.5919 -0.928598 1.24571 4.50045 -0.917842 0.957121 4.5704 -0.831442 -0.0917209 4.66844 -0.861263 0.64592 4.62454 -9.66164 13.0346 -1.07784 -9.84821 25.2494 2.20892 -0.0 0.0 -0.0 -1.72618 22.7764 0.242777 -30.8772 -12.6722 59.2466 1.47986 -36.2421 0.484318 -63.4054 -5.70905 5.19451 0.164346 2.54693 2.15918 -0.0 0.0 -0.0 13.6476 26.695 -27.0936 -2.06788 31.9644 -59.2842 1.06775 27.8751 -0.264991 38.3026 0.263931 4.79586 1.46563 16.1948 -2.92898 0.0 0.0 0.0 10.7468 -0.650215 1.63363 -24.1736 0.222794 3.67552 12.8801 12.9469 -1.81945 13.4325 -0.0 -0.0 -0.0 0.0 -0.0 -15.4153 -0.203647 8.04523 3.67125 0.168498 0.538003 24.1895 10.2438 3.38299 -7.25823 0.0 0.0 0.0 0.0 0.0 
1801.57 738.143 -1588.31 5.58213 67.8812 -13.8639 -1.03599 1.2283 4.50616 -1.02519 0.939383 4.57499 -0.939791 -0.118945 4.66872 -0.969663 0.61908 4.62911 -9.78723 13.045 -0.843169 -9.98304 25.1213 2.46916 -0.0 0.0 -0.0 -2.07307 23.0306 -0.196309 -32.0508 -12.4222 59.2804 1.37502 -34.2586 0.423798 -63.6708 -5.74248 5.20071 0.149103 3.14298 2.30527 -0.0 0.0 -0.0 13.6029 26.6216 -26.9989 -0.608354 32.3027 -59.6489 1.14544 29.5705 -0.302333 38.4502 0.271119 4.81333 1.56446 18.1175 -2.72653 0.0 0.0 0.0 11.4897 -1.37364 0.976959 -24.3473 0.21876 3.70186 12.1485 12.722 -1.72006 13.1458 -0.0 -0.0 -0.0 0.0 -0.0 -15.3484 -0.598216 7.48391 4.48634 0.210573 0.655947 22.9171 11.0433 3.24193 -7.59564 0.0 0.0 0.0 0.0 0.0 
1790.72 743.006 -1592.72 4.16556 68.2489 -12.5446 -0.903836 1.22632 4.60893 -0.892504 0.930891 4.67741 -0.806171 -0.13929 4.76691 -0.837342 0.614445 4.72929 -9.58807 13.9501 0.512111 -9.78796 25.8963 3.97778 -0.0 0.0 -0.0 -2.15891 23.2171 -0.282825 -31.6799 -12.6296 59.7349 1.20516 -30.8362 0.332378 -64.3359 -5.82639 5.21557 0.299578 3.6069 3.49218 -0.0 0.0 -0.0 13.484 26.0549 -26.7923 0.765111 32.4557 -59.7446 1.20494 30.8314 -0.332262 38.5546 0.276228 4.82566 1.68811 20.189 -2.60561 0.0 0.0 0.0 13.0058 -2.14237 0.545218 -18.7849 0.308119 2.85334 11.6799 14.2475 -1.66088 11.1551 -0.0 -0.0 -0.0 0.0 -0.0 -15.8481 -1.00534 7.1951 3.77096 0.173555 0.552463 21.9787 11.594 3.13495 -7.74593 0.0 0.0 0.0 0.0 0.0 
